<?xml version="1.0" encoding="UTF-8" standalone="no"?>
<svg
   xmlns:dc="http://purl.org/dc/elements/1.1/"
   xmlns:cc="http://creativecommons.org/ns#"
   xmlns:rdf="http://www.w3.org/1999/02/22-rdf-syntax-ns#"
   xmlns:svg="http://www.w3.org/2000/svg"
   xmlns="http://www.w3.org/2000/svg"
   id="svg48"
   version="1.1"
   viewBox="0 0 465.49259 180.79626"
   height="180.79626mm"
   width="465.49258mm">
  <defs
     id="defs42" />
  <metadata
     id="metadata45">
    <rdf:RDF>
      <cc:Work
         rdf:about="">
        <dc:format>image/svg+xml</dc:format>
        <dc:type
           rdf:resource="http://purl.org/dc/dcmitype/StillImage" />
        <dc:title></dc:title>
      </cc:Work>
    </rdf:RDF>
  </metadata>
  <g
     transform="translate(3.1041231e-7,-4.028037)"
     style="display:inline"
     id="layer2">
    <g
       id="flowRoot990"
       style="font-style:normal;font-weight:normal;font-size:466.66668701px;line-height:1.25;font-family:sans-serif;letter-spacing:0px;word-spacing:0px;display:inline;fill:#000000;fill-opacity:1;stroke:none"
       transform="matrix(0.26458333,0,0,0.26458333,-20.174135,2.1492218)"
       aria-label="SMART">
      <path
         id="path1176"
         style="fill:#7304b3;fill-opacity:1"
         d="m 337.83725,358.18125 q 0,19.82422 -9.34245,39.19271 -9.11458,19.36849 -25.7487,32.8125 -18.22916,14.58333 -42.61067,22.78646 -24.15365,8.20312 -58.33334,8.20312 -36.6862,0 -66.08073,-6.83594 -29.16667,-6.83593 -59.472661,-20.27994 v -56.51042 h 3.190105 q 25.748696,21.41927 59.472656,33.04036 33.72396,11.6211 63.34636,11.6211 41.92708,0 65.16927,-15.72266 23.47006,-15.72266 23.47006,-41.92709 0,-22.55859 -11.16537,-33.26823 -10.9375,-10.70963 -33.49609,-16.63411 -17.08985,-4.55729 -37.14193,-7.51953 -19.82422,-2.96224 -42.15495,-7.51953 -45.11719,-9.57032 -66.992193,-32.58464 -21.647136,-23.24219 -21.647136,-60.38412 0,-42.61068 36.002609,-69.72656 36.0026,-27.34376 91.3737,-27.34376 35.77474,0 65.625,6.83594 29.85026,6.83594 52.86459,16.86198 v 53.32032 h -3.19011 q -19.36849,-16.40625 -51.04167,-27.11589 -31.44531,-10.9375 -64.48568,-10.9375 -36.23047,0 -58.33333,15.03906 -21.875,15.03907 -21.875,38.73698 0,21.19141 10.9375,33.26823 10.9375,12.07683 38.50911,18.45704 14.58334,3.1901 41.47136,7.74739 26.88802,4.55729 45.57292,9.34245 37.82552,10.02604 56.96615,30.30599 19.14062,20.27995 19.14062,56.73829 z" />
      <path
         id="path1178"
         style="fill:#7304b3;fill-opacity:1"
         d="M 712.44665,455.0237 H 667.32946 V 162.67342 L 572.99352,361.59921 H 546.1055 L 452.45315,162.67342 V 455.0237 H 410.2982 V 115.73332 h 61.52344 l 90.46224,188.89975 87.50001,-188.89975 h 62.66276 z" />
      <path
         id="path1180"
         style="fill:#f1a315;fill-opacity:1"
         d="m 1071.5613,455.0237 h -48.0794 L 990.21363,360.45989 H 843.46884 L 810.2006,455.0237 H 764.39982 L 887.90243,115.73332 h 60.15625 z M 976.31389,321.72291 916.84123,155.15389 857.14071,321.72291 Z" />
      <path
         id="path1182"
         style="fill:#7304b3;fill-opacity:1"
         d="m 1403.7878,455.0237 h -58.5612 L 1231.75,320.12786 h -63.5742 V 455.0237 h -45.1172 V 115.73332 h 95.0196 q 30.7617,0 51.2695,4.10156 20.5078,3.8737 36.9141,14.12761 18.457,11.62109 28.7109,29.39453 10.4818,17.54557 10.4818,44.66146 0,36.6862 -18.4571,61.52344 -18.457,24.60937 -50.8138,37.14193 z M 1298.2865,211.20858 q 0,-14.58333 -5.2409,-25.7487 -5.013,-11.39323 -16.862,-19.14062 -9.7981,-6.60808 -23.2421,-9.11459 -13.4441,-2.73437 -31.6732,-2.73437 h -53.0925 v 128.0599 h 45.5729 q 21.4193,0 37.3698,-3.64583 15.9506,-3.8737 27.1159,-14.12761 10.2539,-9.57031 15.0391,-21.875 5.013,-12.53255 5.013,-31.67318 z" />
      <path
         id="path1184"
         style="fill:#7304b3;fill-opacity:1"
         d="m 1675.8582,155.83749 h -121.224 V 455.0237 h -45.1171 V 155.83749 h -121.224 v -40.10417 h 287.5651 z" />
    </g>
  </g>
  <g
     style="display:inline"
     transform="translate(333.28265,43.092941)"
     id="layer1">
    <path
       id="path127"
       d="m -76.999766,97.780001 c -17.534139,-7.670223 -34.306904,-17.402828 -44.845224,-26.021999 -5.05274,-4.13258 -15.17635,-14.59266 -20.13891,-20.808251 -10.99864,-13.775772 -17.06141,-25.544626 -19.11995,-37.115004 -0.80854,-4.5445625 -0.69577,-15.0450679 0.21085,-19.6327499 3.73172,-18.8832271 18.08876,-31.5824781 40.11709,-35.4847981 5.47652,-0.97016 9.1643,-0.96973 14.16528,0.002 8.714261,1.69265 14.987055,4.34954 21.114305,8.943126 4.833849,3.62394 11.322169,10.296073 13.363459,13.742065 0.88199,1.488916 1.7672,2.711891 1.96712,2.717725 0.19992,0.0058 1.40264,-1.939768 2.67269,-4.323561 2.99749,-5.626042 6.77783,-10.160363 11.91895,-14.296172 6.73767,-5.420173 10.73349,-7.051893 19.78991,-8.081303 6.5418,-0.74359 10.44334,-0.68861 15.50162,0.21844 6.90946,1.239 10.3947901,2.89363 12.7934005,6.073526 l 1.01131,1.340727 -2.0915,-0.333339 c -6.5563505,-1.044935 -13.4059105,-1.511464 -17.9729605,-1.224143 -10.17024,0.639823 -16.05158,3.118567 -22.48427,9.476186 -3.5801,3.538328 -4.51286,4.872331 -6.73928,9.638017 -2.46044,5.266634 -4.59809,11.0192812 -5.8294,15.6875151 -0.31017,1.17598603 -0.82355,3.1282319 -1.14083,4.338328 -0.31727,1.210096 -0.57685,2.723071 -0.57685,3.362166 0,2.165887 -1.99448,5.2057259 -4.05807,6.1849479 -4.39015,2.083276 -8.78639,0.03063 -10.66567,-4.9799059 -4.880719,-13.01284 -15.185119,-25.3912411 -24.606014,-29.5585501 -10.52704,-4.656611 -23.75179,-3.025852 -33.05593,4.076163 -7.82466,5.972693 -10.872,13.9590271 -10.23972,26.8357841 0.54181,11.0343239 1.46133,14.9745969 5.33997,22.8824869 6.27345,12.790504 11.89749,20.325612 25.69103,34.420947 10.42295,10.651001 16.696141,15.881327 25.721555,21.445575 10.222639,6.302354 20.527449,12.8963 20.527449,13.13531 0,0.68197 -2.58374,-0.14224 -8.34141,-2.660905 z"
       style="fill:#d60746;fill-opacity:1;stroke-width:0.53453904" />
    <path
       id="path131"
       d="m 88.047728,132.49158 c -0.17995,-2.86647 -0.55862,-8.21855 -0.84154,-11.8935 -0.28292,-3.67495 -0.76649,-10.28988 -1.07465,-14.69982 -0.30817,-4.40993 -1.15465,-16.474978 -1.88106,-26.811167 -0.72641,-10.336194 -1.32077,-19.055863 -1.32077,-19.377041 0,-0.321183 -0.20947,-0.583967 -0.46546,-0.583967 -0.25601,0 -0.62889,1.743935 -0.82859,3.875408 -0.49149,5.245957 -3.89017,38.266087 -4.68609,45.528317 -0.66284,6.04786 -0.76232,6.06325 -1.99501,0.30841 -0.90631,-4.231 -1.92784,-8.78262 -3.71907,-16.570712 -0.57472,-2.498971 -1.45012,-6.407788 -1.94532,-8.68626 -0.49517,-2.278473 -1.06619,-4.14268 -1.26889,-4.14268 -0.20272,0 -1.5521,2.405428 -2.99863,5.345391 l -2.63006,5.345393 H -6.6157222 c -72.6434698,0 -71.4133898,0.03987 -70.5209298,-2.285894 0.33213,-0.865487 4.52255,-0.921343 69.1262908,-0.921343 H 60.762328 l 4.16285,-8.346271 c 2.28957,-4.590444 4.23884,-8.25872 4.33168,-8.15172 0.0928,0.107003 1.32085,5.486488 2.72886,11.95441 1.40803,6.467922 2.73492,11.960637 2.94862,12.206033 0.40249,0.46219 1.09165,-4.210724 2.11545,-14.344189 0.32674,-3.23396 0.81209,-7.804269 1.07855,-10.156243 0.26649,-2.351972 0.74512,-6.802009 1.06362,-9.888972 0.54208,-5.253707 1.09638,-10.493658 1.88016,-17.773422 0.31938,-2.966625 0.38537,-3.073601 1.89606,-3.073601 1.54921,0 1.56514,0.0313 1.56368,3.073601 0,1.690479 0.22752,5.599295 0.50742,8.686257 0.27988,3.086966 0.76915,9.461342 1.08725,14.165287 0.31811,4.703942 0.80534,11.55941 1.08279,15.234364 0.27744,3.674954 0.75702,10.289879 1.06579,14.699824 1.08916,15.556667 1.73855,21.760527 2.20139,21.030257 0.25021,-0.39477 0.45862,-1.73025 0.46312,-2.96773 0.004,-1.23748 0.23395,-4.00372 0.50985,-6.14719 0.27594,-2.14348 0.76674,-6.66348 1.0907,-10.04445 0.80004,-8.349911 1.563098,-15.932814 2.151588,-21.381561 0.2699,-2.498971 0.79163,-7.548274 1.15943,-11.220675 l 0.66871,-6.677088 3.32051,16.833329 c 3.775144,19.138032 4.507614,22.445995 4.970154,22.445995 0.18069,0 1.46368,-2.285153 2.85107,-5.078121 l 2.52254,-5.078122 h 6.68525 6.68526 V 38.077246 c 0,-42.7655532 0.0998,-48.927694 0.80182,-49.510314 0.63968,-0.530897 0.9639,-0.530897 1.60361,0 0.70234,0.582901 0.80179,6.9229388 0.80179,51.113929 v 50.448493 h -7.48019 -7.48019 l -4.04435,8.075213 c -2.2244,4.441383 -4.15872,7.960843 -4.29853,7.821053 -0.13978,-0.13979 -1.42793,-6.198707 -2.86256,-13.464253 -1.434624,-7.265551 -2.737394,-13.339101 -2.895084,-13.496784 -0.46064,-0.460651 -0.76645,1.670801 -1.66407,11.599309 -0.46517,5.144939 -1.07032,11.399058 -1.3448,13.898028 -0.27448,2.49896 -0.75816,7.18954 -1.07487,10.4235 -0.316678,3.23396 -0.800518,8.04481 -1.075158,10.69078 -0.27467,2.64597 -0.64461,6.43452 -0.82212,8.41899 -0.31554,3.52753 -0.35649,3.60814 -1.83393,3.60814 h -1.51117 z"
       style="fill:#f1a315;fill-opacity:1;stroke-width:0.53453904" />
    <path
       id="path129"
       d="m 121.33592,-17.093789 c -4.11069,-1.499922 -6.22368,-6.846339 -4.24902,-10.751247 1.75703,-3.943773 7.1452,-5.678125 10.87268,-3.499266 3.90365,1.87706 5.48849,7.339941 3.1754,11.007249 -1.86226,3.017275 -5.82457,4.564364 -9.23066,3.54575 -0.19641,-0.08695 -0.38681,-0.187685 -0.5684,-0.302486 z"
       style="fill:#d60746;fill-opacity:1;stroke-width:0.63284516" />
  </g>
</svg>
